<svg width="36" height="36" viewBox="0 0 36 36" fill="none" xmlns="http://www.w3.org/2000/svg">
<g clip-path="url(#clip0_0_44)">
<path d="M35.7621 17.4232L27.5804 9.24151C27.2865 8.89832 26.77 8.85831 26.4268 9.15228C26.0837 9.44618 26.0436 9.96269 26.3376 10.3059C26.365 10.3379 26.3948 10.3678 26.4268 10.3951L33.2094 17.1859H0.818142C0.366322 17.1859 0 17.5522 0 18.0041C0 18.456 0.366322 18.8223 0.818142 18.8223H33.2094L26.4268 25.6048C26.0837 25.8987 26.0436 26.4152 26.3376 26.7584C26.6316 27.1016 27.148 27.1416 27.4912 26.8477C27.5232 26.8202 27.5531 26.7904 27.5804 26.7584L35.7621 18.5767C36.0793 18.2577 36.0793 17.7423 35.7621 17.4232Z" fill="#023539"/>
</g>
<defs>
<clipPath id="clip0_0_44">
<rect width="36" height="36" fill="white"/>
</clipPath>
</defs>
</svg>
