<svg width="39" height="39" viewBox="0 0 39 39" fill="none" xmlns="http://www.w3.org/2000/svg">
<g clip-path="url(#clip0_1_665)">
<path d="M38.7422 18.8751L29.8788 10.0116C29.5604 9.63983 29.0009 9.59649 28.6291 9.91496C28.2573 10.2333 28.2139 10.7929 28.5324 11.1647C28.5621 11.1993 28.5944 11.2317 28.6291 11.2613L35.9769 18.618H0.88632C0.396848 18.618 0 19.0149 0 19.5044C0 19.994 0.396848 20.3908 0.88632 20.3908H35.9769L28.6291 27.7386C28.2573 28.057 28.2139 28.6165 28.5324 28.9883C28.8509 29.3601 29.4104 29.4034 29.7821 29.0849C29.8168 29.0552 29.8492 29.0229 29.8788 28.9883L38.7423 20.1248C39.0859 19.7792 39.0859 19.2209 38.7422 18.8751Z" fill="white"/>
</g>
<defs>
<clipPath id="clip0_1_665">
<rect width="39" height="39" fill="white"/>
</clipPath>
</defs>
</svg>
