<svg width="68" height="68" viewBox="0 0 68 68" fill="none" xmlns="http://www.w3.org/2000/svg">
<g clip-path="url(#clip0_1_536)">
<path d="M67.7039 35.4281L59.255 11.2884C58.0842 7.93779 54.9092 5.68549 51.3607 5.68549H37.1975V2.90078C37.1975 1.36208 35.9515 0.113281 34.41 0.113281C32.8685 0.113281 31.6225 1.36208 31.6225 2.90078V5.68828H17.4592C13.9107 5.68828 10.7357 7.94058 9.56497 11.2884L1.11606 35.4281C1.01292 35.7236 0.959961 37.1898 0.959961 37.1898C0.959961 44.1753 6.17537 49.9203 12.8347 50.2688C16.294 50.4611 19.6195 49.2346 22.1394 46.8429C24.6258 44.4847 26.0475 41.1676 26.0475 37.7445C26.0475 37.7445 25.9889 35.7041 25.8774 35.3975L17.1107 11.2856C17.225 11.2716 17.3421 11.2633 17.4592 11.2633H31.6225V61.4383H14.8975C13.356 61.4383 12.11 62.6871 12.11 64.2258C12.11 65.7645 13.356 67.0133 14.8975 67.0133H53.9225C55.464 67.0133 56.71 65.7645 56.71 64.2258C56.71 62.6871 55.464 61.4383 53.9225 61.4383H37.1975V11.2633H51.3607C51.4778 11.2633 51.5949 11.2689 51.7092 11.2856L42.9397 35.3975C42.8282 35.7013 42.7697 37.7445 42.7697 37.7445C42.7697 41.1704 44.1941 44.4847 46.6777 46.8429C49.0332 49.0785 51.7733 50.2688 55.9852 50.2688C62.6501 50.2688 67.8572 44.1753 67.8572 37.1898C67.8572 37.1898 67.807 35.7236 67.7039 35.4281ZM13.1246 44.7049C10.1113 44.546 7.58864 42.1906 6.80814 39.1383H20.3331C20.0543 40.5292 19.3575 41.7976 18.301 42.7983C16.9017 44.1279 15.0563 44.8025 13.1274 44.7021L13.1246 44.7049ZM19.2794 33.5633H7.67505L13.3671 17.3038L19.2794 33.5633ZM55.4528 17.3038L61.1449 33.5633H49.5405L55.4528 17.3038ZM55.6981 44.7049C53.7803 44.8053 51.9238 44.1307 50.5217 42.8011C49.4653 41.7976 48.7684 40.5292 48.4896 39.1411H62.0146C61.2341 42.1906 58.7142 44.5488 55.7009 44.7077L55.6981 44.7049Z" fill="#BC855E"/>
</g>
<defs>
<clipPath id="clip0_1_536">
<rect width="66.9" height="66.9" fill="white" transform="translate(0.959961 0.113281)"/>
</clipPath>
</defs>
</svg>
