<svg width="50" height="50" viewBox="0 0 50 50" fill="none" xmlns="http://www.w3.org/2000/svg">
<g clip-path="url(#clip0_0_67)">
<path d="M49.8833 26.3937L43.5687 8.35208C42.6937 5.84792 40.3208 4.16458 37.6687 4.16458H27.0833V2.08333C27.0833 0.933333 26.1521 0 25 0C23.8479 0 22.9167 0.933333 22.9167 2.08333V4.16667H12.3313C9.67917 4.16667 7.30625 5.85 6.43125 8.35208L0.116667 26.3937C0.0395833 26.6146 0 27.7104 0 27.7104C0 32.9312 3.89792 37.225 8.875 37.4854C11.4604 37.6292 13.9458 36.7125 15.8292 34.925C17.6875 33.1625 18.75 30.6833 18.75 28.125C18.75 28.125 18.7062 26.6 18.6229 26.3708L12.0708 8.35C12.1562 8.33958 12.2437 8.33333 12.3313 8.33333H22.9167V45.8333H10.4167C9.26458 45.8333 8.33333 46.7667 8.33333 47.9167C8.33333 49.0667 9.26458 50 10.4167 50H39.5833C40.7354 50 41.6667 49.0667 41.6667 47.9167C41.6667 46.7667 40.7354 45.8333 39.5833 45.8333H27.0833V8.33333H37.6687C37.7562 8.33333 37.8437 8.3375 37.9292 8.35L31.375 26.3708C31.2917 26.5979 31.2479 28.125 31.2479 28.125C31.2479 30.6854 32.3125 33.1625 34.1687 34.925C35.9292 36.5958 37.9771 37.4854 41.125 37.4854C46.1062 37.4854 49.9979 32.9312 49.9979 27.7104C49.9979 27.7104 49.9604 26.6146 49.8833 26.3937ZM9.09167 33.3271C6.83958 33.2083 4.95417 31.4479 4.37083 29.1667H14.4792C14.2708 30.2062 13.75 31.1542 12.9604 31.9021C11.9146 32.8958 10.5354 33.4 9.09375 33.325L9.09167 33.3271ZM13.6917 25H5.01875L9.27292 12.8479L13.6917 25ZM40.7271 12.8479L44.9812 25H36.3083L40.7271 12.8479ZM40.9104 33.3271C39.4771 33.4021 38.0896 32.8979 37.0417 31.9042C36.2521 31.1542 35.7313 30.2062 35.5229 29.1687H45.6312C45.0479 31.4479 43.1646 33.2104 40.9125 33.3292L40.9104 33.3271Z" fill="#023539"/>
</g>
<defs>
<clipPath id="clip0_0_67">
<rect width="50" height="50" fill="white"/>
</clipPath>
</defs>
</svg>
