<svg width="35" height="25" viewBox="0 0 35 25" fill="none" xmlns="http://www.w3.org/2000/svg">
<path d="M33.9062 2.1875H1.09375C0.803669 2.1875 0.52547 2.07227 0.320352 1.86715C0.115234 1.66203 0 1.38383 0 1.09375C0 0.803669 0.115234 0.52547 0.320352 0.320352C0.52547 0.115234 0.803669 0 1.09375 0H33.9062C34.1963 0 34.4745 0.115234 34.6796 0.320352C34.8848 0.52547 35 0.803669 35 1.09375C35 1.38383 34.8848 1.66203 34.6796 1.86715C34.4745 2.07227 34.1963 2.1875 33.9062 2.1875Z" fill="#BC855E"/>
<path d="M33.9062 13.125H1.09375C0.803669 13.125 0.52547 13.0098 0.320352 12.8046C0.115234 12.5995 0 12.3213 0 12.0312C0 11.7412 0.115234 11.463 0.320352 11.2579C0.52547 11.0527 0.803669 10.9375 1.09375 10.9375H33.9062C34.1963 10.9375 34.4745 11.0527 34.6796 11.2579C34.8848 11.463 35 11.7412 35 12.0312C35 12.3213 34.8848 12.5995 34.6796 12.8046C34.4745 13.0098 34.1963 13.125 33.9062 13.125Z" fill="#BC855E"/>
<path d="M33.9062 24.0625H1.09375C0.803669 24.0625 0.52547 23.9473 0.320352 23.7421C0.115234 23.537 0 23.2588 0 22.9688C0 22.6787 0.115234 22.4005 0.320352 22.1954C0.52547 21.9902 0.803669 21.875 1.09375 21.875H33.9062C34.1963 21.875 34.4745 21.9902 34.6796 22.1954C34.8848 22.4005 35 22.6787 35 22.9688C35 23.2588 34.8848 23.537 34.6796 23.7421C34.4745 23.9473 34.1963 24.0625 33.9062 24.0625Z" fill="#BC855E"/>
</svg>
