<svg width="60" height="60" viewBox="0 0 60 60" fill="none" xmlns="http://www.w3.org/2000/svg">
<path d="M30 56.5185C29.2554 56.5179 28.5233 56.3267 27.8735 55.9631L19.4483 51.2829C15.2599 48.954 11.77 45.5481 9.33968 41.4178C6.90934 37.2875 5.62688 32.5827 5.625 27.7904V14.801C5.62428 13.7196 6.02487 12.6763 6.74921 11.8733C7.47355 11.0702 8.4701 10.5645 9.5459 10.4541C12.8976 10.099 16.1964 9.35342 19.375 8.23249C22.2895 7.20246 25.0854 5.86345 27.7149 4.23834C28.4029 3.81763 29.1937 3.59512 30.0002 3.59534C30.8066 3.59555 31.5974 3.81849 32.2851 4.23956C34.9149 5.8638 37.7108 7.20237 40.625 8.23249C43.8036 9.35345 47.1024 10.0991 50.4541 10.4542C51.5299 10.5646 52.5264 11.0703 53.2508 11.8733C53.9751 12.6763 54.3757 13.7196 54.375 14.801V27.7905C54.3731 32.5828 53.0907 37.2876 50.6603 41.4179C48.23 45.5482 44.7401 48.9541 40.5518 51.283L32.124 55.9644C31.4749 56.3273 30.7437 56.5181 30 56.5185ZM30 7.34129C29.8898 7.34079 29.7817 7.37078 29.6875 7.42796C26.8298 9.19267 23.7917 10.6482 20.625 11.7675C17.1703 12.9866 13.5846 13.797 9.9414 14.182C9.7866 14.1955 9.64249 14.2665 9.5376 14.3812C9.4327 14.4958 9.37468 14.6456 9.375 14.801V27.7905C9.37648 31.914 10.48 35.9623 12.5712 39.5162C14.6625 43.0701 17.6655 46.0005 21.2695 48.0041L29.6973 52.6855C29.7893 52.7374 29.893 52.7647 29.9986 52.7649C30.1042 52.7651 30.2081 52.7382 30.3003 52.6868L38.7305 48.0043C42.3345 46.0006 45.3376 43.0701 47.4288 39.5162C49.5201 35.9623 50.6235 31.9141 50.625 27.7905V14.801C50.6253 14.6456 50.5673 14.4958 50.4624 14.3812C50.3575 14.2666 50.2134 14.1955 50.0586 14.1821C46.4154 13.797 42.8297 12.9866 39.375 11.7675C36.2083 10.6482 33.1702 9.19384 30.3125 7.42911C30.2187 7.37104 30.1104 7.3406 30 7.34129Z" fill="#BC855E"/>
<path d="M28.75 35.625C28.2908 35.6257 27.8476 35.4571 27.505 35.1514L21.88 30.1514C21.51 29.8207 21.2863 29.3568 21.2577 28.8614C21.2292 28.366 21.3983 27.8795 21.7279 27.5085C22.0575 27.1376 22.5207 26.9125 23.016 26.8825C23.5113 26.8525 23.9983 27.0201 24.3702 27.3486L28.6305 31.1352L36.758 22.467C36.9256 22.2842 37.1279 22.1365 37.353 22.0324C37.5782 21.9283 37.8217 21.8699 38.0696 21.8606C38.3175 21.8513 38.5647 21.8913 38.797 21.9782C39.0293 22.0652 39.2421 22.1973 39.4229 22.367C39.6038 22.5368 39.7492 22.7407 39.8507 22.967C39.9522 23.1933 40.0078 23.4375 40.0143 23.6855C40.0207 23.9334 39.9779 24.1802 39.8883 24.4115C39.7988 24.6428 39.6642 24.854 39.4924 25.0329L30.1174 35.0329C29.9423 35.2202 29.7305 35.3693 29.4953 35.4712C29.26 35.5731 29.0063 35.6254 28.75 35.625Z" fill="#BC855E"/>
</svg>
