<svg width="67" height="68" viewBox="0 0 67 68" fill="none" xmlns="http://www.w3.org/2000/svg">
<g clip-path="url(#clip0_1_534)">
<path d="M25.4167 33.5633C34.4356 33.5633 41.7701 26.0621 41.7701 16.8383C41.7701 7.61444 34.4356 0.113281 25.4167 0.113281C16.3979 0.113281 9.06339 7.61444 9.06339 16.8383C9.06339 26.0621 16.3979 33.5633 25.4167 33.5633ZM25.4167 5.68828C31.4293 5.68828 36.3189 10.6891 36.3189 16.8383C36.3189 22.9875 31.4293 27.9883 25.4167 27.9883C19.4041 27.9883 14.5145 22.9875 14.5145 16.8383C14.5145 10.6891 19.4041 5.68828 25.4167 5.68828ZM14.5145 39.1383H30.9687L29.2598 44.7133H14.5145C10.0064 44.7133 6.33783 48.4653 6.33783 53.0758V67.0133H0.886719V53.0758C0.886719 45.3907 7.00014 39.1383 14.5145 39.1383ZM66.3001 52.1392V53.0758C66.3001 56.1532 63.8607 58.6508 60.8489 58.6508C57.8372 58.6508 55.3978 56.1532 55.3978 53.0758V52.1392L57.7255 45.3934L52.6723 44.4234V61.4411H60.8489V67.0161H39.0445V61.4411H47.2212V43.3781L42.446 42.4638L44.7927 49.1705V50.7733C44.482 53.6361 42.0753 55.8633 39.1944 55.8633C36.1009 55.8633 33.5961 53.2988 33.5961 50.1378V49.2095L37.6844 35.8797L47.2239 37.6888V33.5633H52.675V38.7229L62.2144 40.532L66.3001 52.1392Z" fill="#BC855E"/>
</g>
<defs>
<clipPath id="clip0_1_534">
<rect width="65.4133" height="66.9" fill="white" transform="translate(0.886719 0.113281)"/>
</clipPath>
</defs>
</svg>
