<svg width="50" height="50" viewBox="0 0 50 50" fill="none" xmlns="http://www.w3.org/2000/svg">
<g clip-path="url(#clip0_0_65)">
<path d="M18.75 25C25.6437 25 31.25 19.3937 31.25 12.5C31.25 5.60625 25.6437 0 18.75 0C11.8562 0 6.25 5.60625 6.25 12.5C6.25 19.3937 11.8562 25 18.75 25ZM18.75 4.16667C23.3458 4.16667 27.0833 7.90417 27.0833 12.5C27.0833 17.0958 23.3458 20.8333 18.75 20.8333C14.1542 20.8333 10.4167 17.0958 10.4167 12.5C10.4167 7.90417 14.1542 4.16667 18.75 4.16667ZM10.4167 29.1667H22.9937L21.6875 33.3333H10.4167C6.97083 33.3333 4.16667 36.1375 4.16667 39.5833V50H0V39.5833C0 33.8396 4.67292 29.1667 10.4167 29.1667ZM50 38.8833V39.5833C50 41.8833 48.1354 43.75 45.8333 43.75C43.5312 43.75 41.6667 41.8833 41.6667 39.5833V38.8833L43.4458 33.8417L39.5833 33.1167V45.8354H45.8333V50.0021H29.1667V45.8354H35.4167V32.3354L31.7667 31.6521L33.5604 36.6646V37.8625C33.3229 40.0021 31.4833 41.6667 29.2812 41.6667C26.9167 41.6667 25.0021 39.75 25.0021 37.3875V36.6938L28.1271 26.7312L35.4187 28.0833V25H39.5854V28.8562L46.8771 30.2083L50 38.8833Z" fill="#023539"/>
</g>
<defs>
<clipPath id="clip0_0_65">
<rect width="50" height="50" fill="white"/>
</clipPath>
</defs>
</svg>
