<svg width="20" height="20" viewBox="0 0 20 20" fill="none" xmlns="http://www.w3.org/2000/svg">
<g clip-path="url(#clip0_1_673)">
<path d="M19.9951 20L20.0001 19.9992V12.6642C20.0001 9.07583 19.2276 6.31167 15.0326 6.31167C13.0159 6.31167 11.6626 7.41834 11.1101 8.4675H11.0517V6.64667H7.07422V19.9992H11.2159V13.3875C11.2159 11.6467 11.5459 9.96334 13.7017 9.96334C15.8259 9.96334 15.8576 11.95 15.8576 13.4992V20H19.9951Z" fill="#BC855E"/>
<path d="M0.330078 6.6475H4.47675V20H0.330078V6.6475Z" fill="#BC855E"/>
<path d="M2.40167 0C1.07583 0 0 1.07583 0 2.40167C0 3.7275 1.07583 4.82583 2.40167 4.82583C3.7275 4.82583 4.80333 3.7275 4.80333 2.40167C4.8025 1.07583 3.72667 0 2.40167 0Z" fill="#BC855E"/>
</g>
<defs>
<clipPath id="clip0_1_673">
<rect width="20" height="20" fill="white"/>
</clipPath>
</defs>
</svg>
