<svg width="60" height="61" viewBox="0 0 60 61" fill="none" xmlns="http://www.w3.org/2000/svg">
<path d="M27.6179 29.1322C25.215 24.972 20.7449 22.3916 15.96 22.3916H12.8645C9.6116 22.3916 6.50562 21.0013 4.34403 18.5684L2.83301 19.927C5.38285 22.7813 9.04497 24.4243 12.8645 24.4243H15.96C20.0313 24.4243 23.8194 26.615 25.8655 30.1433L26.0544 30.4804C27.0723 32.2287 27.6074 34.2299 27.6074 36.252V58.5594H29.6326V36.252C29.6326 33.8718 29.003 31.5231 27.8068 29.4587L27.6179 29.1217V29.1322Z" fill="#023539"/>
<path d="M21.5425 29.3113C19.6432 27.6998 17.2298 26.7308 14.7534 26.5939L12.8541 26.4886C11.6054 26.4149 10.3987 26.1094 9.27596 25.5618L8.39453 27.3944C9.72716 28.0369 11.1437 28.416 12.6233 28.5108V33.3767H11.9307L9.20251 40.5597L11.3221 41.5708C12.7597 42.2554 14.4386 42.2765 15.8867 41.6024L18.1112 40.5808L15.362 33.3767H14.659V28.6267C16.6946 28.7425 18.6778 29.543 20.2413 30.87C22.3819 32.6816 23.5991 35.3357 23.5991 38.1478V58.4435H25.6243V38.1478C25.6243 34.7354 24.1343 31.523 21.5425 29.3218V29.3113ZM16.128 39.7382L11.1857 39.7593L12.9905 34.8618H14.2812L16.128 39.7382Z" fill="#023539"/>
<path d="M56.3061 18.5684C54.1341 20.9908 51.0281 22.3916 47.7857 22.3916H44.6902C39.9053 22.3916 35.4352 24.972 33.0323 29.1322L32.8434 29.4693C31.6472 31.5336 31.0176 33.8823 31.0176 36.2626V58.5699H33.0428V36.2626C33.0428 34.2404 33.5779 32.2393 34.5958 30.4909L34.7846 30.1539C36.8308 26.6255 40.6188 24.4348 44.6902 24.4348H47.7857C51.6052 24.4348 55.2673 22.7918 57.8172 19.9376L56.3061 18.5789V18.5684Z" fill="#023539"/>
<path d="M52.2562 27.3944L51.3747 25.5618C50.252 26.1094 49.0453 26.4149 47.7966 26.4886L45.8973 26.5939C43.4104 26.7308 41.0075 27.6998 39.1082 29.3113C36.5164 31.5125 35.0264 34.7354 35.0264 38.1373V58.433H37.0516V38.1373C37.0516 35.3252 38.2792 32.6711 40.4094 30.8595C41.9728 29.5324 43.9561 28.7425 45.9917 28.6161V33.3662H45.2992L42.571 40.5492L44.6906 41.5603C46.1281 42.2449 47.8071 42.266 49.2551 41.5919L51.4797 40.5703L48.7305 33.3662H48.0274V28.5003C49.4965 28.4055 50.9235 28.0263 52.2562 27.3839V27.3944ZM49.507 39.7382L44.5647 39.7593L46.3695 34.8618H47.6602L49.507 39.7382Z" fill="#023539"/>
<path d="M28.6685 16.1417L25.4705 19.3516C24.7247 20.1002 24.7247 21.3139 25.4705 22.0625L28.6685 25.2723C29.4143 26.0209 30.6235 26.0209 31.3693 25.2723L34.5672 22.0625C35.313 21.3139 35.313 20.1002 34.5672 19.3516L31.3693 16.1417C30.6235 15.3932 29.4143 15.3932 28.6685 16.1417Z" fill="#023539"/>
<path d="M30 60.2341C13.4523 60.2341 0 46.7212 0 30.1223C0 13.5234 13.4627 0 30 0C46.5373 0 60 13.5129 60 30.1118C60 46.7106 46.5373 60.2235 30 60.2235V60.2341ZM30 1.84315C14.4701 1.84315 1.83631 14.524 1.83631 30.1118C1.83631 45.6995 14.4701 58.3804 30 58.3804C45.5299 58.3804 58.1637 45.6995 58.1637 30.1118C58.1637 14.524 45.5299 1.84315 30 1.84315Z" fill="#023539"/>
</svg>
