<svg width="60" height="60" viewBox="0 0 60 60" fill="none" xmlns="http://www.w3.org/2000/svg">
<path d="M9.02344 37.5984C9.3 38.359 8.90742 39.1992 8.14687 39.4758C7.98164 39.5355 7.81289 39.5637 7.64648 39.5637C7.04765 39.5637 6.48515 39.1933 6.26953 38.598C2.34726 27.7957 6.23437 15.7031 15.7219 9.19217C25.0172 2.81366 37.3758 3.3785 46.0242 10.4988L45.8074 8.51717C45.7195 7.71327 46.2996 6.98905 47.1035 6.90116C47.9086 6.81327 48.6316 7.39335 48.7195 8.19725L49.3488 13.9418C49.4367 14.7457 48.8566 15.4699 48.0527 15.5578L42.3082 16.1883C42.2543 16.1941 42.2004 16.1976 42.1465 16.1976C41.4094 16.1976 40.7742 15.6422 40.6922 14.8922C40.6043 14.0883 41.1844 13.364 41.9883 13.2762L44.4539 13.0055C36.798 6.4828 25.7004 5.89803 17.3789 11.6074C8.99179 17.3625 5.55586 28.05 9.02226 37.5972L9.02344 37.5984ZM53.7305 21.4008C53.4539 20.6402 52.6137 20.2476 51.8531 20.5242C51.0926 20.8008 50.7 21.641 50.9766 22.4016C54.443 31.9488 51.007 42.6363 42.6199 48.3914C34.2984 54.1019 23.2008 53.5172 15.5449 46.9933L18.0105 46.7226C18.8145 46.6348 19.3957 45.9105 19.3066 45.1066C19.2187 44.3027 18.4934 43.7215 17.6906 43.8105L11.9461 44.441C11.1422 44.5289 10.5609 45.2531 10.65 46.057L11.2793 51.8015C11.3613 52.5515 11.9965 53.107 12.7336 53.107C12.7875 53.107 12.8414 53.1047 12.8953 53.0976C13.6992 53.0098 14.2805 52.2855 14.1914 51.4816L13.9746 49.5C18.5988 53.3062 24.2812 55.2398 29.9906 55.2398C34.9605 55.2398 39.9516 53.775 44.277 50.8066C53.7656 44.2957 57.6527 32.2031 53.7293 21.4008H53.7305ZM46.1133 30C46.1133 38.8851 38.8852 46.1133 30 46.1133C21.1148 46.1133 13.8867 38.8851 13.8867 30C13.8867 21.1148 21.1148 13.8867 30 13.8867C38.8852 13.8867 46.1133 21.1148 46.1133 30ZM43.1836 30C43.1836 22.7308 37.2691 16.8164 30 16.8164C22.7309 16.8164 16.8164 22.7308 16.8164 30C16.8164 37.2691 22.7309 43.1836 30 43.1836C37.2691 43.1836 43.1836 37.2691 43.1836 30ZM30.273 28.5609C29.9519 28.5 28.35 28.1449 28.35 27.1195C28.35 26.339 29.0906 25.7039 30.0012 25.7039C30.6762 25.7039 31.2949 26.0683 31.541 26.6109C31.8762 27.3469 32.7445 27.6726 33.4805 27.3375C34.2164 27.0023 34.5422 26.134 34.207 25.398C33.6832 24.2461 32.6742 23.3918 31.4648 23.0051V21.757C31.4648 20.9484 30.8086 20.2922 30 20.2922C29.1914 20.2922 28.5352 20.9484 28.5352 21.757V23.0039C26.7258 23.5851 25.4191 25.2105 25.4191 27.1207C25.4191 29.2816 27.0691 30.9363 29.7269 31.4402C30.048 31.5012 31.65 31.8562 31.65 32.8816C31.65 33.6621 30.9094 34.2973 29.9988 34.2973C29.3238 34.2973 28.7051 33.9328 28.459 33.3914C28.1238 32.6555 27.2555 32.3297 26.5195 32.6648C25.7836 33 25.4578 33.8683 25.793 34.6043C26.3168 35.7562 27.3258 36.6105 28.5352 36.9972V38.2453C28.5352 39.0539 29.1914 39.7101 30 39.7101C30.8086 39.7101 31.4648 39.0539 31.4648 38.2453V36.9984C33.2742 36.4172 34.5809 34.793 34.5809 32.8828C34.5809 30.7219 32.9309 29.066 30.273 28.5621V28.5609Z" fill="#BC855E"/>
</svg>
