<svg width="40" height="40" viewBox="0 0 40 40" fill="none" xmlns="http://www.w3.org/2000/svg">
<g clip-path="url(#clip0_0_321)">
<path d="M23.3117 10.18C23.2467 10.1983 11.265 14.9533 11.265 14.9533C10.3741 15.3008 9.6137 15.9172 9.08944 16.7169C8.56518 17.5166 8.30317 18.4598 8.33983 19.4153C8.3765 20.3708 8.71002 21.2912 9.29403 22.0483C9.87803 22.8055 10.6835 23.3618 11.5983 23.64L15.5083 24.6183L16.7967 28.825C17.1394 29.6658 17.7252 30.3853 18.479 30.8915C19.2327 31.3976 20.1204 31.6676 21.0283 31.6667H21.1017C22.0234 31.6548 22.92 31.3641 23.6733 30.8327C24.4265 30.3014 25.0012 29.5543 25.3217 28.69C25.3217 28.69 29.81 16.7483 29.8217 16.69C30.058 15.7889 30.0543 14.8417 29.8107 13.9425C29.5672 13.0434 29.0924 12.2237 28.4336 11.5651C27.7748 10.9065 26.955 10.4319 26.0558 10.1886C25.1566 9.94528 24.2093 9.94174 23.3083 10.1783L23.3117 10.18ZM26.6167 15.7783L22.2033 27.5167C22.1184 27.7548 21.962 27.961 21.7557 28.1072C21.5493 28.2533 21.3029 28.3323 21.05 28.3333C20.8833 28.3133 20.175 28.29 19.925 27.7033L18.4117 22.7433C18.328 22.4682 18.1747 22.2194 17.9664 22.0211C17.7582 21.8228 17.5022 21.6818 17.2233 21.6117L12.5267 20.445C12.2795 20.3609 12.0642 20.2026 11.9102 19.9918C11.7562 19.7809 11.6709 19.5277 11.666 19.2666C11.6611 19.0056 11.7368 18.7493 11.8827 18.5328C12.0287 18.3163 12.2378 18.15 12.4817 18.0567L24.2483 13.39C24.5724 13.3126 24.911 13.3211 25.2308 13.4146C25.5506 13.5082 25.8404 13.6835 26.0717 13.9233C26.3132 14.1604 26.4901 14.4552 26.5855 14.7799C26.6809 15.1046 26.6916 15.4483 26.6167 15.7783ZM20 0C16.0444 0 12.1776 1.17298 8.8886 3.37061C5.59962 5.56824 3.03617 8.69181 1.52242 12.3463C0.00866572 16.0009 -0.387401 20.0222 0.384303 23.9018C1.15601 27.7814 3.06082 31.3451 5.85787 34.1421C8.65492 36.9392 12.2186 38.844 16.0982 39.6157C19.9778 40.3874 23.9992 39.9913 27.6537 38.4776C31.3082 36.9638 34.4318 34.4004 36.6294 31.1114C38.827 27.8224 40 23.9556 40 20C39.9943 14.6974 37.8853 9.61368 34.1358 5.8642C30.3863 2.11471 25.3026 0.00573514 20 0ZM20 36.6667C16.7037 36.6667 13.4813 35.6892 10.7405 33.8578C7.99969 32.0265 5.86348 29.4235 4.60202 26.3781C3.34056 23.3326 3.0105 19.9815 3.65359 16.7485C4.29667 13.5155 5.88402 10.5458 8.2149 8.21489C10.5458 5.88401 13.5155 4.29667 16.7485 3.65358C19.9815 3.01049 23.3326 3.34055 26.3781 4.60201C29.4235 5.86347 32.0265 7.99968 33.8578 10.7405C35.6892 13.4813 36.6667 16.7036 36.6667 20C36.6618 24.4188 34.9043 28.6552 31.7798 31.7798C28.6552 34.9043 24.4188 36.6618 20 36.6667Z" fill="#023539"/>
</g>
<defs>
<clipPath id="clip0_0_321">
<rect width="40" height="40" fill="white"/>
</clipPath>
</defs>
</svg>
