<svg width="50" height="50" viewBox="0 0 50 50" fill="none" xmlns="http://www.w3.org/2000/svg">
<g clip-path="url(#clip0_0_94)">
<path d="M46.2583 2.42083C43.8812 0.437497 40.7708 -0.377086 37.7208 0.168747L29.7583 1.61666C27.8562 1.96458 26.2042 2.9375 25 4.30208C23.7958 2.9375 22.1437 1.9625 20.2396 1.61666L12.2792 0.170831C9.23542 -0.377086 6.12083 0.437497 3.74167 2.42083C1.3625 4.40625 0 7.32083 0 10.4187V37.0687C0 42.1042 3.59792 46.4146 8.55417 47.3167L21.6458 49.6979C22.7583 49.9 23.8792 50.0021 25 50.0021C26.1208 50.0021 27.2417 49.9021 28.3542 49.6979L41.4479 47.3167C46.4042 46.4146 50 42.1042 50 37.0687V10.4187C50 7.32083 48.6354 4.40625 46.2583 2.42083ZM22.9167 45.6833C22.7417 45.6583 9.3 43.2167 9.3 43.2167C6.325 42.675 4.16667 40.0896 4.16667 37.0667V10.4187C4.16667 8.56041 4.98542 6.8125 6.4125 5.62083C7.54792 4.67291 8.96042 4.16875 10.4104 4.16875C10.7833 4.16875 11.1604 4.20208 11.5354 4.27083L19.4958 5.71875C21.4792 6.07916 22.9188 7.80416 22.9188 9.81875V45.6854L22.9167 45.6833ZM45.8333 37.0687C45.8333 40.0917 43.675 42.6771 40.7021 43.2187C40.7021 43.2187 27.2604 45.6583 27.0833 45.6854V9.81666C27.0833 7.80208 28.5229 6.07916 30.5042 5.71666L38.4646 4.26875C40.2937 3.93333 42.1583 4.42708 43.5875 5.61875C45.0146 6.81041 45.8333 8.55833 45.8333 10.4167V37.0687ZM18.7167 12.9667C18.5333 13.9729 17.6562 14.6771 16.6688 14.6771C16.5458 14.6771 10.0437 13.5062 10.0437 13.5062C8.9125 13.3 8.16042 12.2167 8.36667 11.0833C8.57292 9.95208 9.64792 9.20625 10.7896 9.40625L17.0396 10.5417C18.1708 10.7479 18.9229 11.8333 18.7167 12.9667ZM18.7167 21.2062C18.5333 22.2125 17.6562 22.9167 16.6688 22.9167C16.5458 22.9167 10.0437 21.7458 10.0437 21.7458C8.9125 21.5396 8.16042 20.4562 8.36667 19.3229C8.57292 18.1917 9.64792 17.4417 10.7896 17.6458L17.0396 18.7812C18.1708 18.9875 18.9229 20.0729 18.7167 21.2062ZM18.7167 29.5396C18.5333 30.5458 17.6562 31.25 16.6688 31.25C16.5458 31.25 10.0437 30.0792 10.0437 30.0792C8.9125 29.8729 8.16042 28.7896 8.36667 27.6562C8.57292 26.525 9.64792 25.7771 10.7896 25.9792L17.0396 27.1146C18.1708 27.3208 18.9229 28.4062 18.7167 29.5396ZM41.6333 11.0875C41.8396 12.2187 41.0875 13.3042 39.9562 13.5104C39.9562 13.5104 33.4542 14.6812 33.3312 14.6812C32.3437 14.6812 31.4667 13.9771 31.2833 12.9708C31.0771 11.8396 31.8292 10.7542 32.9604 10.5479L39.2104 9.4125C40.3375 9.21041 41.4271 9.95625 41.6333 11.0875ZM41.6333 19.3271C41.8396 20.4583 41.0875 21.5437 39.9562 21.75C39.9562 21.75 33.4542 22.9208 33.3312 22.9208C32.3437 22.9208 31.4667 22.2167 31.2833 21.2104C31.0771 20.0792 31.8292 18.9937 32.9604 18.7875L39.2104 17.6521C40.3375 17.4479 41.4271 18.1958 41.6333 19.3271ZM41.6333 27.6604C41.8396 28.7917 41.0875 29.8771 39.9562 30.0833C39.9562 30.0833 33.4542 31.2542 33.3312 31.2542C32.3437 31.2542 31.4667 30.55 31.2833 29.5437C31.0771 28.4125 31.8292 27.3271 32.9604 27.1208L39.2104 25.9854C40.3375 25.7833 41.4271 26.5292 41.6333 27.6604ZM37.4667 36.7521C37.6729 37.8833 36.9208 38.9687 35.7896 39.175C35.7896 39.175 33.4542 39.5875 33.3312 39.5875C32.3437 39.5875 31.4667 38.8833 31.2833 37.8771C31.0771 36.7458 31.8292 35.6604 32.9604 35.4542L35.0437 35.075C36.1875 34.8708 37.2604 35.6208 37.4667 36.7521ZM14.55 37.2125C14.3667 38.2187 13.4896 38.9229 12.5021 38.9229C12.3792 38.9229 10.0437 38.5104 10.0437 38.5104C8.9125 38.3042 8.16042 37.2208 8.36667 36.0875C8.57292 34.9562 9.64792 34.2 10.7896 34.4104L12.8729 34.7896C14.0042 34.9958 14.7562 36.0792 14.55 37.2125Z" fill="white"/>
</g>
<defs>
<clipPath id="clip0_0_94">
<rect width="50" height="50" fill="white"/>
</clipPath>
</defs>
</svg>
