<svg width="40" height="40" viewBox="0 0 40 40" fill="none" xmlns="http://www.w3.org/2000/svg">
<g clip-path="url(#clip0_0_323)">
<path d="M20 40C8.97167 40 0 31.0283 0 20C0 8.97167 8.97167 0 20 0C31.0283 0 40 8.97167 40 20C40 31.0283 31.0283 40 20 40ZM20 5C11.73 5 5 11.73 5 20C5 28.27 11.73 35 20 35C28.27 35 35 28.27 35 20C35 11.73 28.27 5 20 5ZM27.155 22.9917L29.755 23.3333C30.7633 23.3333 31.58 22.5167 31.58 21.5083L31.6683 19.7783C31.6683 18.5333 31.145 17.4183 30.3283 16.6017C26.1333 12.4067 14.1933 12.0833 9.67667 16.6017C8.86 17.4183 8.335 18.5333 8.33667 19.7783L8.425 21.5083C8.425 22.5167 9.24167 23.3333 10.25 23.3333L12.85 22.9917C13.8583 22.9917 14.675 22.175 14.675 21.1667L14.9217 18.5367C18.4733 17.02 21.855 17.09 25.0867 18.5367L25.3333 21.1667C25.3333 22.175 26.15 22.9917 27.1583 22.9917H27.155Z" fill="#023539"/>
</g>
<defs>
<clipPath id="clip0_0_323">
<rect width="40" height="40" fill="white"/>
</clipPath>
</defs>
</svg>
