<svg width="80" height="80" viewBox="0 0 80 80" fill="none" xmlns="http://www.w3.org/2000/svg">
<g clip-path="url(#clip0_0_85)">
<path d="M55.1667 34.7833L35.6733 24.1067C33.8 23.0533 31.58 23.0767 29.73 24.1533C27.8767 25.2367 26.77 27.1667 26.77 29.3133V50.6833C26.77 52.83 27.8767 54.76 29.73 55.8433C30.6733 56.3933 31.7133 56.67 32.7467 56.67C33.75 56.67 34.7467 56.4133 35.6567 55.9033L55.18 45.21C57.0867 44.1367 58.2267 42.19 58.2267 40.0033C58.2267 37.8167 57.0867 35.8667 55.1633 34.7867L55.1667 34.7833ZM53.5667 42.2933L34.0433 52.9867C33.2133 53.45 32.2333 53.4433 31.4167 52.9667C30.5967 52.4867 30.1067 51.6333 30.1067 50.6833V29.3133C30.1067 28.3633 30.5933 27.51 31.4167 27.03C31.83 26.79 32.2867 26.6667 32.7433 26.6667C33.19 26.6667 33.6433 26.7833 34.06 27.0167L53.5533 37.6933C54.3967 38.1667 54.9 39.0267 54.9 39.9933C54.9 40.96 54.3967 41.82 53.57 42.2867L53.5667 42.2933ZM40 0C17.9433 0 0 17.9433 0 40C0 62.0567 17.9433 80 40 80C62.0567 80 80 62.0567 80 40C80 17.9433 62.0567 0 40 0ZM40 76.6667C19.7833 76.6667 3.33333 60.2167 3.33333 40C3.33333 19.7833 19.7833 3.33333 40 3.33333C60.2167 3.33333 76.6667 19.7833 76.6667 40C76.6667 60.2167 60.2167 76.6667 40 76.6667Z" fill="#023539"/>
</g>
<defs>
<clipPath id="clip0_0_85">
<rect width="80" height="80" fill="white"/>
</clipPath>
</defs>
</svg>
