<svg width="50" height="50" viewBox="0 0 50 50" fill="none" xmlns="http://www.w3.org/2000/svg">
<g clip-path="url(#clip0_0_63)">
<path d="M25 33.3333C23.3518 33.3333 21.7407 32.8446 20.3702 31.9289C18.9998 31.0132 17.9317 29.7118 17.301 28.189C16.6703 26.6663 16.5052 24.9908 16.8268 23.3743C17.1483 21.7577 17.942 20.2729 19.1074 19.1074C20.2729 17.942 21.7577 17.1483 23.3742 16.8268C24.9908 16.5052 26.6663 16.6703 28.189 17.301C29.7117 17.9317 31.0132 18.9998 31.9289 20.3703C32.8446 21.7407 33.3333 23.3518 33.3333 25C33.3333 27.2101 32.4554 29.3298 30.8926 30.8926C29.3298 32.4554 27.2101 33.3333 25 33.3333ZM25 20.8333C24.1759 20.8333 23.3703 21.0777 22.6851 21.5355C21.9999 21.9934 21.4659 22.6441 21.1505 23.4055C20.8351 24.1668 20.7526 25.0046 20.9134 25.8129C21.0742 26.6211 21.471 27.3636 22.0537 27.9463C22.6364 28.529 23.3789 28.9258 24.1871 29.0866C24.9954 29.2474 25.8332 29.1649 26.5945 28.8495C27.3559 28.5341 28.0066 28.0001 28.4645 27.3149C28.9223 26.6297 29.1667 25.8241 29.1667 25C29.1667 23.8949 28.7277 22.8351 27.9463 22.0537C27.1649 21.2723 26.1051 20.8333 25 20.8333ZM37.5 47.9167C37.5 44.6015 36.183 41.422 33.8388 39.0778C31.4946 36.7336 28.3152 35.4167 25 35.4167C21.6848 35.4167 18.5054 36.7336 16.1612 39.0778C13.817 41.422 12.5 44.6015 12.5 47.9167C12.5 48.4692 12.7195 48.9991 13.1102 49.3898C13.5009 49.7805 14.0308 50 14.5833 50C15.1359 50 15.6658 49.7805 16.0565 49.3898C16.4472 48.9991 16.6667 48.4692 16.6667 47.9167C16.6667 45.7065 17.5446 43.5869 19.1074 42.0241C20.6702 40.4613 22.7899 39.5833 25 39.5833C27.2101 39.5833 29.3298 40.4613 30.8926 42.0241C32.4554 43.5869 33.3333 45.7065 33.3333 47.9167C33.3333 48.4692 33.5528 48.9991 33.9435 49.3898C34.3342 49.7805 34.8641 50 35.4167 50C35.9692 50 36.4991 49.7805 36.8898 49.3898C37.2805 48.9991 37.5 48.4692 37.5 47.9167ZM37.5 16.6667C35.8518 16.6667 34.2407 16.1779 32.8702 15.2623C31.4998 14.3466 30.4317 13.0451 29.801 11.5224C29.1703 9.99965 29.0052 8.32409 29.3268 6.70758C29.6483 5.09108 30.442 3.60622 31.6074 2.44078C32.7729 1.27534 34.2577 0.48167 35.8742 0.160126C37.4908 -0.161417 39.1663 0.00361068 40.689 0.634341C42.2117 1.26507 43.5132 2.33318 44.4289 3.70358C45.3446 5.07399 45.8333 6.68516 45.8333 8.33334C45.8333 10.5435 44.9554 12.6631 43.3926 14.2259C41.8298 15.7887 39.7101 16.6667 37.5 16.6667ZM37.5 4.16667C36.6759 4.16667 35.8703 4.41104 35.1851 4.86888C34.4999 5.32672 33.9659 5.97746 33.6505 6.73882C33.3351 7.50018 33.2526 8.33796 33.4134 9.14621C33.5742 9.95447 33.971 10.6969 34.5537 11.2796C35.1364 11.8623 35.8789 12.2592 36.6871 12.4199C37.4954 12.5807 38.3332 12.4982 39.0945 12.1828C39.8559 11.8675 40.5066 11.3334 40.9645 10.6482C41.4223 9.96301 41.6667 9.15743 41.6667 8.33334C41.6667 7.22827 41.2277 6.16846 40.4463 5.38706C39.6649 4.60566 38.6051 4.16667 37.5 4.16667ZM50 31.25C49.9967 27.9358 48.6787 24.7583 46.3352 22.4148C43.9917 20.0713 40.8142 18.7533 37.5 18.75C36.9475 18.75 36.4176 18.9695 36.0269 19.3602C35.6362 19.7509 35.4167 20.2808 35.4167 20.8333C35.4167 21.3859 35.6362 21.9158 36.0269 22.3065C36.4176 22.6972 36.9475 22.9167 37.5 22.9167C39.7101 22.9167 41.8298 23.7946 43.3926 25.3574C44.9554 26.9202 45.8333 29.0399 45.8333 31.25C45.8333 31.8025 46.0528 32.3324 46.4435 32.7231C46.8342 33.1138 47.3641 33.3333 47.9167 33.3333C48.4692 33.3333 48.9991 33.1138 49.3898 32.7231C49.7805 32.3324 50 31.8025 50 31.25ZM12.5 16.6667C10.8518 16.6667 9.24066 16.1779 7.87025 15.2623C6.49984 14.3466 5.43173 13.0451 4.801 11.5224C4.17027 9.99965 4.00525 8.32409 4.32679 6.70758C4.64833 5.09108 5.44201 3.60622 6.60744 2.44078C7.77288 1.27534 9.25774 0.48167 10.8742 0.160126C12.4908 -0.161417 14.1663 0.00361068 15.689 0.634341C17.2117 1.26507 18.5132 2.33318 19.4289 3.70358C20.3446 5.07399 20.8333 6.68516 20.8333 8.33334C20.8333 10.5435 19.9554 12.6631 18.3926 14.2259C16.8298 15.7887 14.7101 16.6667 12.5 16.6667ZM12.5 4.16667C11.6759 4.16667 10.8703 4.41104 10.1851 4.86888C9.49992 5.32672 8.96587 5.97746 8.6505 6.73882C8.33514 7.50018 8.25262 8.33796 8.41339 9.14621C8.57417 9.95447 8.971 10.6969 9.55372 11.2796C10.1364 11.8623 10.8789 12.2592 11.6871 12.4199C12.4954 12.5807 13.3332 12.4982 14.0945 12.1828C14.8559 11.8675 15.5066 11.3334 15.9645 10.6482C16.4223 9.96301 16.6667 9.15743 16.6667 8.33334C16.6667 7.22827 16.2277 6.16846 15.4463 5.38706C14.6649 4.60566 13.6051 4.16667 12.5 4.16667ZM4.16667 31.25C4.16667 29.0399 5.04464 26.9202 6.60744 25.3574C8.17025 23.7946 10.2899 22.9167 12.5 22.9167C13.0525 22.9167 13.5824 22.6972 13.9731 22.3065C14.3638 21.9158 14.5833 21.3859 14.5833 20.8333C14.5833 20.2808 14.3638 19.7509 13.9731 19.3602C13.5824 18.9695 13.0525 18.75 12.5 18.75C9.18581 18.7533 6.00831 20.0713 3.66482 22.4148C1.32133 24.7583 0.00330923 27.9358 0 31.25C0 31.8025 0.219493 32.3324 0.610194 32.7231C1.0009 33.1138 1.5308 33.3333 2.08333 33.3333C2.63587 33.3333 3.16577 33.1138 3.55647 32.7231C3.94717 32.3324 4.16667 31.8025 4.16667 31.25Z" fill="#023539"/>
</g>
<defs>
<clipPath id="clip0_0_63">
<rect width="50" height="50" fill="white"/>
</clipPath>
</defs>
</svg>
