<svg width="67" height="68" viewBox="0 0 67 68" fill="none" xmlns="http://www.w3.org/2000/svg">
<g clip-path="url(#clip0_1_541)">
<path d="M33.5 45.3333C31.2914 45.3333 29.1325 44.6687 27.2961 43.4233C25.4598 42.178 24.0285 40.408 23.1833 38.3371C22.3382 36.2662 22.117 33.9874 22.5479 31.789C22.9788 29.5905 24.0423 27.5711 25.604 25.9861C27.1657 24.4011 29.1554 23.3217 31.3215 22.8844C33.4876 22.4471 35.7329 22.6716 37.7733 23.5294C39.8137 24.3872 41.5577 25.8398 42.7847 27.7035C44.0118 29.5673 44.6667 31.7585 44.6667 34C44.6667 37.0058 43.4902 39.8885 41.396 42.0139C39.3019 44.1393 36.4616 45.3333 33.5 45.3333ZM33.5 28.3333C32.3957 28.3333 31.3162 28.6657 30.3981 29.2883C29.4799 29.911 28.7643 30.796 28.3417 31.8315C27.9191 32.8669 27.8085 34.0063 28.0239 35.1055C28.2394 36.2047 28.7711 37.2144 29.552 38.0069C30.3328 38.7994 31.3277 39.3391 32.4107 39.5578C33.4938 39.7764 34.6164 39.6642 35.6367 39.2353C36.6569 38.8064 37.5289 38.0801 38.1424 37.1482C38.7559 36.2164 39.0833 35.1208 39.0833 34C39.0833 32.4971 38.4951 31.0558 37.448 29.9931C36.4009 28.9304 34.9808 28.3333 33.5 28.3333ZM50.25 65.1667C50.25 60.658 48.4853 56.334 45.344 53.1459C42.2028 49.9577 37.9424 48.1667 33.5 48.1667C29.0576 48.1667 24.7972 49.9577 21.656 53.1459C18.5147 56.334 16.75 60.658 16.75 65.1667C16.75 65.9181 17.0441 66.6388 17.5677 67.1702C18.0912 67.7015 18.8013 68 19.5417 68C20.2821 68 20.9921 67.7015 21.5157 67.1702C22.0392 66.6388 22.3333 65.9181 22.3333 65.1667C22.3333 62.1609 23.5098 59.2782 25.604 57.1528C27.6981 55.0274 30.5384 53.8333 33.5 53.8333C36.4616 53.8333 39.3019 55.0274 41.396 57.1528C43.4902 59.2782 44.6667 62.1609 44.6667 65.1667C44.6667 65.9181 44.9608 66.6388 45.4843 67.1702C46.0079 67.7015 46.7179 68 47.4583 68C48.1987 68 48.9088 67.7015 49.4323 67.1702C49.9559 66.6388 50.25 65.9181 50.25 65.1667ZM50.25 22.6667C48.0414 22.6667 45.8825 22.002 44.0461 20.7567C42.2098 19.5113 40.7785 17.7413 39.9333 15.6704C39.0882 13.5995 38.867 11.3208 39.2979 9.12232C39.7288 6.92386 40.7923 4.90446 42.354 3.31946C43.9157 1.73447 45.9054 0.655071 48.0715 0.217772C50.2376 -0.219527 52.4829 0.00491052 54.5233 0.862704C56.5637 1.7205 58.3077 3.17312 59.5347 5.03688C60.7618 6.90063 61.4167 9.09182 61.4167 11.3333C61.4167 14.3391 60.2402 17.2218 58.146 19.3472C56.0519 21.4726 53.2116 22.6667 50.25 22.6667ZM50.25 5.66667C49.1457 5.66667 48.0662 5.99902 47.1481 6.62168C46.2299 7.24434 45.5143 8.12935 45.0917 9.1648C44.6691 10.2002 44.5585 11.3396 44.7739 12.4389C44.9894 13.5381 45.5211 14.5478 46.302 15.3403C47.0828 16.1328 48.0777 16.6725 49.1607 16.8911C50.2438 17.1098 51.3664 16.9976 52.3867 16.5687C53.4069 16.1398 54.2789 15.4134 54.8924 14.4816C55.5059 13.5497 55.8333 12.4541 55.8333 11.3333C55.8333 9.83045 55.2451 8.38911 54.198 7.3264C53.1509 6.26369 51.7308 5.66667 50.25 5.66667ZM67 42.5C66.9956 37.9927 65.2294 33.6713 62.0891 30.4842C58.9489 27.297 54.691 25.5045 50.25 25.5C49.5096 25.5 48.7995 25.7985 48.276 26.3299C47.7525 26.8612 47.4583 27.5819 47.4583 28.3333C47.4583 29.0848 47.7525 29.8055 48.276 30.3368C48.7995 30.8682 49.5096 31.1667 50.25 31.1667C53.2116 31.1667 56.0519 32.3607 58.146 34.4861C60.2402 36.6115 61.4167 39.4942 61.4167 42.5C61.4167 43.2515 61.7108 43.9721 62.2343 44.5035C62.7579 45.0348 63.4679 45.3333 64.2083 45.3333C64.9487 45.3333 65.6588 45.0348 66.1823 44.5035C66.7059 43.9721 67 43.2515 67 42.5ZM16.75 22.6667C14.5414 22.6667 12.3825 22.002 10.5461 20.7567C8.70978 19.5113 7.27852 17.7413 6.43335 15.6704C5.58817 13.5995 5.36703 11.3208 5.7979 9.12232C6.22877 6.92386 7.29229 4.90446 8.85397 3.31946C10.4157 1.73447 12.4054 0.655071 14.5715 0.217772C16.7376 -0.219527 18.9829 0.00491052 21.0233 0.862704C23.0637 1.7205 24.8077 3.17312 26.0347 5.03688C27.2618 6.90063 27.9167 9.09182 27.9167 11.3333C27.9167 14.3391 26.7402 17.2218 24.646 19.3472C22.5519 21.4726 19.7116 22.6667 16.75 22.6667ZM16.75 5.66667C15.6457 5.66667 14.5662 5.99902 13.6481 6.62168C12.7299 7.24434 12.0143 8.12935 11.5917 9.1648C11.1691 10.2002 11.0585 11.3396 11.2739 12.4389C11.4894 13.5381 12.0211 14.5478 12.802 15.3403C13.5828 16.1328 14.5777 16.6725 15.6607 16.8911C16.7438 17.1098 17.8664 16.9976 18.8867 16.5687C19.9069 16.1398 20.7789 15.4134 21.3924 14.4816C22.0059 13.5497 22.3333 12.4541 22.3333 11.3333C22.3333 9.83045 21.7451 8.38911 20.698 7.3264C19.6509 6.26369 18.2308 5.66667 16.75 5.66667ZM5.58333 42.5C5.58333 39.4942 6.75982 36.6115 8.85397 34.4861C10.9481 32.3607 13.7884 31.1667 16.75 31.1667C17.4904 31.1667 18.2005 30.8682 18.724 30.3368C19.2475 29.8055 19.5417 29.0848 19.5417 28.3333C19.5417 27.5819 19.2475 26.8612 18.724 26.3299C18.2005 25.7985 17.4904 25.5 16.75 25.5C12.309 25.5045 8.05113 27.297 4.91086 30.4842C1.77059 33.6713 0.00443437 37.9927 0 42.5C0 43.2515 0.294121 43.9721 0.81766 44.5035C1.3412 45.0348 2.05127 45.3333 2.79167 45.3333C3.53206 45.3333 4.24213 45.0348 4.76567 44.5035C5.28921 43.9721 5.58333 43.2515 5.58333 42.5Z" fill="#BC855E"/>
</g>
<defs>
<clipPath id="clip0_1_541">
<rect width="67" height="68" fill="white"/>
</clipPath>
</defs>
</svg>
